<svg width="64" height="64" viewBox="0 0 64 64" fill="none" xmlns="http://www.w3.org/2000/svg">
<path d="M47 58H46C42.265 58 37.5 56.045 33.6 52.905C33.035 52.45 32.5 52 32 51.5C31.5 52 30.97 52.44 30.405 52.895C26.445 56.095 21.805 58 18 58H17C15.6739 58 14.4021 57.4732 13.4645 56.5355C12.5268 55.5979 12 54.3261 12 53V27C12 25.6739 12.5268 24.4021 13.4645 23.4645C14.4021 22.5268 15.6739 22 17 22H23V15C23 12.6131 23.9482 10.3239 25.636 8.63604C27.3239 6.94821 29.6131 6 32 6C34.3869 6 36.6761 6.94821 38.364 8.63604C40.0518 10.3239 41 12.6131 41 15V23C41 23.2652 40.8946 23.5196 40.7071 23.7071C40.5196 23.8946 40.2652 24 40 24H17C16.2044 24 15.4413 24.3161 14.8787 24.8787C14.3161 25.4413 14 26.2044 14 27V53C14 53.7957 14.3161 54.5587 14.8787 55.1213C15.4413 55.6839 16.2044 56 17 56H18C21.9 56 27 53.46 30.605 50.06C28.28 47.415 27 44.595 27 42C27 40.6739 27.5268 39.4021 28.4645 38.4645C29.4021 37.5268 30.6739 37 32 37C33.3261 37 34.5979 37.5268 35.5355 38.4645C36.4732 39.4021 37 40.6739 37 42C37 44.6 35.715 47.42 33.395 50.07C33.85 50.505 34.335 50.93 34.855 51.345C38.425 54.215 42.695 56 46 56H47C47.7957 56 48.5587 55.6839 49.1213 55.1213C49.6839 54.5587 50 53.7957 50 53V27C50 26.2044 49.6839 25.4413 49.1213 24.8787C48.5587 24.3161 47.7957 24 47 24H45C44.7348 24 44.4804 23.8946 44.2929 23.7071C44.1054 23.5196 44 23.2652 44 23C44 22.7348 44.1054 22.4804 44.2929 22.2929C44.4804 22.1054 44.7348 22 45 22H47C48.3261 22 49.5979 22.5268 50.5355 23.4645C51.4732 24.4021 52 25.6739 52 27V53C52 54.3261 51.4732 55.5979 50.5355 56.5355C49.5979 57.4732 48.3261 58 47 58ZM32 39C31.2044 39 30.4413 39.3161 29.8787 39.8787C29.3161 40.4413 29 41.2043 29 42C29 44.045 30.08 46.375 32 48.61C33.82 46.5 35 44.195 35 42C35 41.2043 34.6839 40.4413 34.1213 39.8787C33.5587 39.3161 32.7956 39 32 39ZM25 22H39V15C39 13.1435 38.2625 11.363 36.9497 10.0503C35.637 8.7375 33.8565 8 32 8C30.1435 8 28.363 8.7375 27.0503 10.0503C25.7375 11.363 25 13.1435 25 15V22Z" fill="black"/>
</svg>
