<svg width="29" height="29" viewBox="0 0 29 29" fill="none" xmlns="http://www.w3.org/2000/svg">
<path d="M19.6823 28.0668C18.7247 28.0609 17.7709 27.9451 16.8396 27.7216C14.4354 27.1623 10.702 25.6274 6.56846 21.4944C2.43496 17.3615 0.900723 13.627 0.341685 11.2223C-0.0113829 9.80918 -0.0917535 8.34167 0.104879 6.89842C0.266449 5.54657 0.855325 4.28159 1.78576 3.28766L3.78221 1.29121C4.19141 0.881854 4.67725 0.557129 5.21197 0.33558C5.74669 0.114031 6.31982 0 6.89863 0C7.47743 0 8.05056 0.114031 8.58528 0.33558C9.12001 0.557129 9.60584 0.881854 10.015 1.29121L13.0051 4.28198C13.4146 4.69112 13.7394 5.17694 13.961 5.71167C14.1826 6.2464 14.2967 6.81956 14.2967 7.39839C14.2967 7.97723 14.1826 8.55039 13.961 9.08512C13.7394 9.61985 13.4146 10.1057 13.0051 10.5148L12.9974 10.5225L11.2588 12.2368C11.291 12.4217 11.3336 12.6046 11.3865 12.7846C11.6443 13.7173 12.1152 14.5774 12.762 15.2971C13.4769 15.9705 14.3331 16.4758 15.2681 16.7763C15.4231 16.8261 15.581 16.8664 15.7409 16.8971L17.5447 15.0788C17.9533 14.6677 18.439 14.3412 18.9739 14.1181C19.5089 13.895 20.0826 13.7797 20.6622 13.7786C21.2418 13.7776 21.8159 13.8909 22.3517 14.1121C22.8874 14.3333 23.3743 14.658 23.7843 15.0676C23.7946 15.077 23.8041 15.0873 23.8143 15.0976L26.7692 18.0445L26.807 18.0831C27.6186 18.9128 28.0701 20.0291 28.0634 21.1897C28.0566 22.3503 27.5922 23.4614 26.771 24.2816L24.7752 26.2775C23.7813 27.2077 22.5166 27.7964 21.165 27.9579C20.6742 28.0315 20.1786 28.0679 19.6823 28.0668ZM6.89902 3.06971C6.7232 3.06925 6.54903 3.10365 6.38658 3.17091C6.22413 3.23817 6.07662 3.33696 5.95259 3.46158L3.95614 5.45803C3.49561 5.99385 3.21087 6.65824 3.14047 7.36125C3.00553 8.41893 3.07002 9.49254 3.33062 10.5265C3.79993 12.5418 5.11894 15.7036 8.73857 19.3249C12.3599 22.9445 15.5212 24.2635 17.5355 24.7328C18.5697 24.9934 19.6437 25.0578 20.7017 24.923C21.4045 24.8527 22.0686 24.568 22.604 24.1073L24.6012 22.1107C24.7255 21.9866 24.8242 21.8392 24.8915 21.677C24.9588 21.5148 24.9935 21.3409 24.9936 21.1653C24.9936 20.9896 24.9591 20.8157 24.8919 20.6534C24.8248 20.4911 24.7263 20.3437 24.6021 20.2195C24.5919 20.2101 24.5824 20.1997 24.5721 20.1895L21.6172 17.2426L21.5941 17.2194C21.3375 16.9854 21.0018 16.8575 20.6546 16.8614C20.3073 16.8654 19.9746 17.001 19.7235 17.2408L17.4632 19.52C17.2762 19.7093 17.0429 19.8463 16.7866 19.9174C16.5855 19.971 16.3787 19.9997 16.1707 20.003C15.5515 20.0018 14.9365 19.9014 14.3489 19.7059C12.9412 19.2582 11.6555 18.4924 10.5914 17.4678C9.57527 16.3821 8.83604 15.0674 8.43651 13.635C8.25488 13.0425 8.15797 12.4273 8.14866 11.8077C8.14899 11.6769 8.15778 11.5463 8.17497 11.4167C8.22047 11.0804 8.37584 10.7686 8.61692 10.5298L10.8378 8.34084C11.0874 8.08974 11.2273 7.74986 11.2266 7.39578C11.226 7.0417 11.0849 6.70235 10.8343 6.45218L7.84432 3.4614C7.59295 3.21166 7.25336 3.07094 6.89902 3.06971Z" fill="url(#paint0_linear)"/>
<defs>
<linearGradient id="paint0_linear" x1="14.0297" y1="3.16311" x2="14.0297" y2="24.9037" gradientUnits="userSpaceOnUse">
<stop stop-color="#82CF5F"/>
<stop offset="1" stop-color="#00BCF5"/>
</linearGradient>
</defs>
</svg>
