<svg width="64" height="64" viewBox="0 0 64 64" fill="none" xmlns="http://www.w3.org/2000/svg">
<path d="M46.815 14C41.25 14 37.5 19.385 34.5 23.97L33.68 20.405C33.6203 20.1464 33.4604 19.9221 33.2353 19.7815C33.0103 19.6408 32.7386 19.5953 32.48 19.655C32.2214 19.7147 31.9971 19.8746 31.8565 20.0997C31.7158 20.3247 31.6703 20.5964 31.73 20.855L33.08 26.7C33.1248 26.9201 33.2424 27.1187 33.4138 27.2638C33.5852 27.409 33.8005 27.4922 34.025 27.5C34.1024 27.5013 34.1797 27.4929 34.255 27.475L40.1 26.1C40.228 26.0705 40.349 26.016 40.456 25.9397C40.563 25.8634 40.6539 25.7668 40.7235 25.6553C40.7932 25.5439 40.8402 25.4198 40.8619 25.2902C40.8836 25.1606 40.8795 25.028 40.85 24.9C40.8204 24.772 40.766 24.651 40.6897 24.544C40.6134 24.437 40.5168 24.3461 40.4053 24.2765C40.2939 24.2068 40.1698 24.1598 40.0402 24.1381C39.9106 24.1164 39.778 24.1205 39.65 24.15L36.23 24.94C38.97 20.785 42.35 16 46.815 16C51.88 16 56 23.18 56 32C56 40.82 51.88 48 46.815 48C42.525 48 39.215 42.335 35.025 35.16C34.33 34 31.395 29 30.705 27.83C26.19 20.105 22.625 14 17.185 14C10.915 14 6 21.905 6 32C6 42.095 10.915 50 17.185 50C22.685 50 25.245 45.55 28.47 39.915C28.915 39.14 29.375 38.335 29.86 37.505C29.962 37.2794 29.9766 37.024 29.9011 36.7882C29.8256 36.5525 29.6654 36.3531 29.4514 36.2287C29.2373 36.1042 28.9848 36.0636 28.7425 36.1147C28.5003 36.1657 28.2856 36.3048 28.14 36.505C27.64 37.34 27.18 38.15 26.735 38.935C23.605 44.39 21.54 48 17.185 48C12.12 48 8 40.82 8 32C8 23.18 12.12 16 17.185 16C21.5 16 24.785 21.665 29 28.84C29.695 30.025 32.63 34.99 33.32 36.17C37.82 43.895 41.4 50 46.82 50C53.085 50 58 42.095 58 32C58 21.905 53.085 14 46.815 14Z" fill="black"/>
</svg>
