<svg width="28" height="23" viewBox="0 0 28 23" fill="none" xmlns="http://www.w3.org/2000/svg">
<path d="M25.4459 9.55724C25.8989 9.55724 26.3333 9.3773 26.6536 9.057C26.974 8.73669 27.1539 8.30227 27.1539 7.84929V2.68393C27.1532 1.97233 26.8702 1.29008 26.367 0.786905C25.8638 0.283727 25.1816 0.000723435 24.47 0H2.68393C1.97233 0.000723435 1.29008 0.283727 0.786905 0.786905C0.283726 1.29008 0.000723435 1.97233 0 2.68393V7.84929C0 8.30227 0.179945 8.73669 0.500249 9.057C0.820553 9.3773 1.25498 9.55724 1.70796 9.55724C2.14175 9.56059 2.55664 9.73526 2.8622 10.0432C3.16776 10.3511 3.33923 10.7673 3.33923 11.2011C3.33923 11.6349 3.16776 12.0512 2.8622 12.3591C2.55664 12.667 2.14175 12.8417 1.70796 12.845C1.25498 12.845 0.820553 13.025 0.500249 13.3453C0.179945 13.6656 0 14.1 0 14.553V19.7178C0.000723435 20.4294 0.283726 21.1117 0.786905 21.6149C1.29008 22.118 1.97233 22.4011 2.68393 22.4018H24.47C25.1816 22.4011 25.8638 22.118 26.367 21.6149C26.8702 21.1117 27.1532 20.4294 27.1539 19.7178V14.553C27.1539 14.1 26.974 13.6656 26.6536 13.3453C26.3333 13.025 25.8989 12.845 25.4459 12.845C25.0121 12.8417 24.5973 12.667 24.2917 12.3591C23.9861 12.0512 23.8147 11.6349 23.8147 11.2011C23.8147 10.7673 23.9861 10.3511 24.2917 10.0432C24.5973 9.73526 25.0121 9.56059 25.4459 9.55724ZM3.41592 15.9636C4.39666 15.6112 5.24469 14.9646 5.84418 14.1122C6.44368 13.2598 6.7654 12.243 6.7654 11.2009C6.7654 10.1587 6.44368 9.14202 5.84418 8.28957C5.24469 7.43713 4.39666 6.79054 3.41592 6.43812V3.41592H9.44237V18.9859H3.41592V15.9636ZM23.738 6.43812C22.7572 6.79054 21.9092 7.43713 21.3097 8.28957C20.7102 9.14202 20.3885 10.1587 20.3885 11.2009C20.3885 12.243 20.7102 13.2598 21.3097 14.1122C21.9092 14.9646 22.7572 15.6112 23.738 15.9636V18.986H12.8583V3.41592H23.738V6.43812Z" fill="url(#paint0_linear)"/>
<defs>
<linearGradient id="paint0_linear" x1="13.5769" y1="0" x2="13.5769" y2="22.4018" gradientUnits="userSpaceOnUse">
<stop stop-color="#82CF5F"/>
<stop offset="1" stop-color="#00BCF5"/>
</linearGradient>
</defs>
</svg>
