<svg width="64" height="64" viewBox="0 0 64 64" fill="none" xmlns="http://www.w3.org/2000/svg">
<path d="M43.359 55C41.8726 55.0058 40.4014 54.7005 39.04 54.1038C37.6786 53.507 36.4571 52.632 35.454 51.535L20.324 36.44C20.1513 36.2501 20.0583 36.001 20.0641 35.7444C20.07 35.4878 20.1743 35.2432 20.3555 35.0614C20.5367 34.8795 20.7809 34.7743 21.0375 34.7676C21.2941 34.7608 21.5435 34.853 21.734 35.025L36.894 50.15C37.7269 51.0701 38.7475 51.8007 39.887 52.2924C41.0265 52.784 42.2583 53.0254 43.499 53C46.0013 52.9321 48.3827 51.9087 50.154 50.14C51.029 49.2976 51.7262 48.2883 52.2045 47.1719C52.6829 46.0555 52.9326 44.8546 52.939 43.64C52.9485 42.387 52.7065 41.1449 52.2273 39.9872C51.748 38.8295 51.0413 37.7797 50.149 36.9L49.679 36.43C49.4894 36.2424 49.3821 35.9871 49.3807 35.7203C49.3793 35.4535 49.4839 35.1971 49.6715 35.0075C49.8592 34.8179 50.1145 34.7105 50.3812 34.7091C50.648 34.7077 50.9044 34.8124 51.094 35L51.564 35.47C52.6436 36.5367 53.4989 37.8086 54.0793 39.2109C54.6598 40.6131 54.9538 42.1174 54.944 43.635C54.9365 45.1154 54.6327 46.5792 54.0505 47.9403C53.4683 49.3014 52.6194 50.5322 51.554 51.56C49.422 53.6805 46.56 54.9058 43.554 54.985L43.359 55ZM20.524 55C19.0144 54.9945 17.5211 54.6874 16.1318 54.0966C14.7425 53.5059 13.4853 52.6435 12.434 51.56C10.2843 49.4367 9.05125 46.5561 8.99904 43.535C8.9785 42.0226 9.27588 40.5227 9.87192 39.1325C10.468 37.7423 11.3494 36.4928 12.459 35.465L27.599 20.32C27.7918 20.1633 28.0359 20.0839 28.2839 20.0973C28.532 20.1107 28.7661 20.2159 28.9408 20.3925C29.1155 20.5691 29.2183 20.8044 29.229 21.0525C29.2398 21.3007 29.1578 21.544 28.999 21.735L13.849 36.9C12.9389 37.7397 12.215 38.7609 11.7241 39.8978C11.2332 41.0346 10.9862 42.2618 10.999 43.5C11.0462 46.0014 12.071 48.3849 13.854 50.14C14.7204 51.0369 15.757 51.7518 16.9032 52.2429C18.0494 52.7341 19.2821 52.9914 20.529 53C21.7531 52.9963 22.9635 52.743 24.0863 52.2556C25.209 51.7681 26.2206 51.0568 27.059 50.165L27.559 49.665C27.746 49.474 28.0012 49.3652 28.2684 49.3624C28.5357 49.3596 28.7931 49.463 28.984 49.65C29.175 49.837 29.2839 50.0922 29.2867 50.3594C29.2895 50.6266 29.186 50.884 28.999 51.075L28.499 51.575C27.4767 52.6541 26.2457 53.5141 24.8808 54.1029C23.5158 54.6916 22.0455 54.9968 20.559 55H20.524ZM35.689 44C35.4266 43.9897 35.1788 43.8765 34.999 43.685C34.9061 43.5921 34.8323 43.4818 34.782 43.3604C34.7317 43.239 34.7058 43.1089 34.7058 42.9775C34.7058 42.8461 34.7317 42.716 34.782 42.5946C34.8323 42.4732 34.9061 42.3629 34.999 42.27L50.239 27.03C51.9968 25.2703 52.9835 22.8844 52.982 20.3972C52.9806 17.91 51.9913 15.5252 50.2315 13.7675C48.4718 12.0098 46.0859 11.0231 43.5987 11.0245C41.1115 11.0259 38.7268 12.0153 36.969 13.775L36.414 14.335C36.3211 14.4279 36.2108 14.5016 36.0894 14.5519C35.968 14.6022 35.8379 14.6281 35.7065 14.6281C35.5751 14.6281 35.445 14.6022 35.3236 14.5519C35.2023 14.5016 35.092 14.4279 34.999 14.335C34.9061 14.2421 34.8324 14.1318 34.7822 14.0104C34.7319 13.889 34.706 13.7589 34.706 13.6275C34.706 13.4961 34.7319 13.366 34.7822 13.2446C34.8324 13.1232 34.9061 13.0129 34.999 12.92L35.554 12.36C36.6046 11.2787 37.8596 10.4169 39.2461 9.82495C40.6326 9.23295 42.123 8.92247 43.6306 8.91158C45.1382 8.90069 46.6329 9.1896 48.0278 9.7615C49.4227 10.3334 50.6901 11.1769 51.7561 12.2429C52.8221 13.309 53.6656 14.5763 54.2375 15.9713C54.8094 17.3662 55.0984 18.8609 55.0875 20.3685C55.0766 21.876 54.7661 23.3664 54.1741 24.7529C53.5821 26.1395 52.7204 27.3945 51.639 28.445L36.399 43.685C36.3077 43.7822 36.1978 43.8602 36.0759 43.9143C35.9539 43.9684 35.8224 43.9975 35.689 44ZM13.644 29.31C13.511 29.3082 13.3797 29.2798 13.2578 29.2266C13.1359 29.1733 13.0258 29.0963 12.934 29L12.434 28.5C11.3329 27.4753 10.4585 26.2314 9.8669 24.8485C9.27531 23.4655 8.97969 21.974 8.99904 20.47C9.03843 17.4432 10.2732 14.5549 12.434 12.435C14.5538 10.2755 17.4337 9.03019 20.459 8.965C21.9777 8.94735 23.4831 9.24991 24.877 9.85296C26.2709 10.456 27.5221 11.346 28.549 12.465L43.644 27.565C43.8343 27.752 43.9426 28.0069 43.9449 28.2737C43.9472 28.5404 43.8435 28.7972 43.6565 28.9875C43.4696 29.1778 43.2146 29.286 42.9479 29.2884C42.6811 29.2907 42.4243 29.187 42.234 29L27.104 13.85C26.2753 12.9225 25.2562 12.1847 24.1163 11.6868C22.9765 11.1889 21.7427 10.9427 20.499 10.965C17.9905 11.0207 15.6035 12.0562 13.849 13.85C12.0591 15.604 11.0347 17.9942 10.999 20.5C10.9815 21.7359 11.224 22.9616 11.7107 24.0977C12.1973 25.2339 12.9174 26.255 13.824 27.095L14.349 27.62C14.442 27.7129 14.5158 27.8232 14.5661 27.9446C14.6164 28.066 14.6423 28.1961 14.6423 28.3275C14.6423 28.4589 14.6164 28.589 14.5661 28.7104C14.5158 28.8318 14.442 28.9421 14.349 29.035C14.1591 29.2155 13.906 29.3142 13.644 29.31Z" fill="black"/>
</svg>
