<svg width="29" height="23" viewBox="0 0 29 23" fill="none" xmlns="http://www.w3.org/2000/svg">
<path d="M26.9257 4.3853C26.2241 3.94677 25.347 3.85906 24.5577 4.20989C24.47 4.20989 24.47 4.29759 24.3823 4.29759L21.9265 5.61318V5.35006C21.9265 2.36806 19.5584 0 16.5764 0H5.35006C2.36806 0 0 2.36806 0 5.35006V17.3658C0 20.2601 2.36806 22.7158 5.35006 22.7158H16.6641C19.6461 22.7158 22.0142 20.3478 22.0142 17.3658V17.015L24.47 18.4182H24.5577C24.9085 18.5937 25.2593 18.6814 25.6101 18.6814C26.0487 18.6814 26.4872 18.5937 26.9257 18.3305C27.7151 17.892 28.1536 17.1027 28.1536 16.2256V6.49024C28.0659 5.61318 27.6274 4.82383 26.9257 4.3853ZM18.7691 17.3658C18.7691 18.5937 17.8043 19.5584 16.5764 19.5584H5.35006C4.12218 19.5584 3.15741 18.5937 3.15741 17.3658V5.35006C3.15741 4.12218 4.12218 3.15741 5.35006 3.15741H16.6641C17.892 3.15741 18.8568 4.12218 18.8568 5.35006V8.33206V14.3838V17.3658H18.7691ZM24.9085 15.0854L21.9265 13.419V9.20912L24.9085 7.54271V15.0854Z" fill="url(#paint0_linear)"/>
<defs>
<linearGradient id="paint0_linear" x1="14.0329" y1="0" x2="14.0329" y2="22.6819" gradientUnits="userSpaceOnUse">
<stop stop-color="#82CF5F"/>
<stop offset="1" stop-color="#00BCF5"/>
</linearGradient>
</defs>
</svg>
