<svg width="27" height="26" viewBox="0 0 27 26" fill="none" xmlns="http://www.w3.org/2000/svg">
<path fill-rule="evenodd" clip-rule="evenodd" d="M20.4872 5.53315C18.6603 3.93013 16.3083 3.0539 13.8779 3.07089C11.4475 3.08788 9.10794 3.9969 7.30364 5.62531C5.49933 7.25373 4.35594 9.4881 4.09062 11.9041C3.8253 14.32 4.45654 16.7493 5.86444 18.7304C6.13882 19.1166 6.21962 19.6077 6.08339 20.0614C5.80029 21.0041 5.33343 21.8816 4.70972 22.6431C4.63831 22.7303 4.565 22.8157 4.48987 22.8994C4.69875 22.8963 4.90785 22.8816 5.11621 22.8553C6.04324 22.7382 6.92716 22.3948 7.68999 21.8553C7.94391 21.6735 8.25379 21.5685 8.58349 21.5685H8.58352C8.84432 21.5685 9.09342 21.6343 9.31231 21.7525C11.4575 22.8867 13.9443 23.195 16.3017 22.6188C18.6627 22.0417 20.7294 20.6175 22.1095 18.6169C23.4896 16.6162 24.0868 14.1784 23.7877 11.7664C23.4886 9.35435 22.3141 7.13618 20.4872 5.53315ZM8.67929 24.8566C11.2963 26.0181 14.2331 26.2855 17.0308 25.6016C20.1229 24.8458 22.8297 22.9807 24.6371 20.3604C26.4446 17.7402 27.2267 14.5475 26.835 11.3885C26.4433 8.22958 24.9051 5.32451 22.5125 3.22507C20.1199 1.12564 17.0395 -0.021934 13.8564 0.000317628C10.6734 0.0225692 7.60936 1.21309 5.24632 3.34578C2.88328 5.47846 1.38581 8.40475 1.03833 11.5689C0.721448 14.4543 1.38105 17.3542 2.89804 19.8104C2.74663 20.1268 2.55748 20.4248 2.33416 20.6974C1.96714 21.1455 1.51508 21.5166 1.00401 21.7892C0.937057 21.8249 0.872839 21.8656 0.811889 21.9108C0.529009 22.1206 0.306281 22.4012 0.166051 22.7243C0.0258218 23.0474 -0.0269782 23.4017 0.0129458 23.7517C0.0528703 24.1016 0.184117 24.4349 0.393516 24.7181C0.602912 25.0014 0.883103 25.2245 1.20599 25.3653C1.22735 25.3746 1.24891 25.3834 1.27067 25.3917C2.6173 25.9072 4.07032 26.0824 5.50087 25.9017C6.62052 25.7604 7.69932 25.4044 8.67929 24.8566ZM8.58352 24.6391H8.58349V23.1038L8.58352 24.6391Z" fill="url(#paint0_linear)"/>
<defs>
<linearGradient id="paint0_linear" x1="13.4669" y1="0" x2="13.4669" y2="25.973" gradientUnits="userSpaceOnUse">
<stop stop-color="#82CF5F"/>
<stop offset="1" stop-color="#00BCF5"/>
</linearGradient>
</defs>
</svg>
