<svg width="26" height="26" viewBox="0 0 26 26" fill="none" xmlns="http://www.w3.org/2000/svg">
<path fill-rule="evenodd" clip-rule="evenodd" d="M4.92177 0H20.1265C22.8511 0 25.0483 2.19722 25.1362 4.92177V20.2144C25.1362 22.939 22.939 25.1362 20.2144 25.1362H4.92177C2.19722 25.1362 0 22.939 0 20.2144V4.92177C0 2.19722 2.19722 0 4.92177 0ZM20.1265 22.0601C21.1812 22.0601 22.0601 21.1812 22.0601 20.1265H22.148V4.92177C22.148 3.8671 21.2691 2.98822 20.2144 2.98822H4.92177C3.8671 2.98822 2.98822 3.8671 2.98822 4.92177V20.1265C2.98822 21.1812 3.8671 22.0601 4.92177 22.0601H20.1265ZM10.3698 14.6775L17.0493 7.99794C17.6645 7.38272 18.5434 7.38272 19.0708 7.91005C19.686 8.52527 19.686 9.40416 19.0708 10.0194L11.3365 17.7536C11.0729 18.0173 10.6334 18.193 10.2819 18.193C9.93032 18.193 9.49088 18.0173 9.22721 17.7536L5.79955 14.3259C5.18433 13.7107 5.18433 12.8318 5.79955 12.2166C6.41477 11.6014 7.29366 11.6014 7.90888 12.2166L10.3698 14.6775Z" fill="url(#paint0_linear)"/>
<defs>
<linearGradient id="paint0_linear" x1="10.902" y1="8.84764" x2="10.902" y2="16.8702" gradientUnits="userSpaceOnUse">
<stop stop-color="#82CF5F"/>
<stop offset="1" stop-color="#00BCF5"/>
</linearGradient>
</defs>
</svg>
